<svg width="24" height="24" viewBox="0 0 24 24" fill="none" xmlns="http://www.w3.org/2000/svg">
<path d="M17.6636 6.65161V6.66047" stroke="#4EB176" stroke-width="1.41642" stroke-linecap="round" stroke-linejoin="round"/>
<path d="M17.6614 13.2612L14.3564 8.53978C14.0383 7.96474 13.8756 7.31665 13.8846 6.65953C13.8936 6.00241 14.0739 5.359 14.4077 4.79289C14.7414 4.22677 15.2171 3.75753 15.7878 3.43154C16.3584 3.10555 17.0042 2.93408 17.6614 2.93408C18.3186 2.93408 18.9644 3.10555 19.535 3.43154C20.1056 3.75753 20.5813 4.22677 20.9151 4.79289C21.2489 5.359 21.4292 6.00241 21.4381 6.65953C21.4471 7.31665 21.2845 7.96474 20.9664 8.53978L17.6614 13.2612Z" stroke="#4EB176" stroke-width="1.41642" stroke-linecap="round" stroke-linejoin="round"/>
<path d="M10.5811 5.47164L9.16469 4.76343L3.49902 7.59626V19.8719L9.16469 17.039L14.8304 19.8719L20.496 17.039V15.1505" stroke="#4EB176" stroke-width="1.41642" stroke-linecap="round" stroke-linejoin="round"/>
<path d="M9.16309 4.76343V17.039" stroke="#4EB176" stroke-width="1.41642" stroke-linecap="round" stroke-linejoin="round"/>
<path d="M14.8306 15.1499V19.8713" stroke="#4EB176" stroke-width="1.41642" stroke-linecap="round" stroke-linejoin="round"/>
</svg>
