<svg width="27" height="27" viewBox="0 0 27 27" fill="none" xmlns="http://www.w3.org/2000/svg">
<path d="M13.2712 0.830566C8.4197 0.830566 4.47266 4.77761 4.47266 9.62907C4.47266 15.7268 13.2798 26.1431 13.2798 26.1431C13.2798 26.1431 22.0697 15.427 22.0697 9.62907C22.0697 4.77761 18.1228 0.830566 13.2712 0.830566ZM15.9258 12.2053C15.1938 12.9371 14.2326 13.3031 13.2712 13.3031C12.3099 13.3031 11.3483 12.9371 10.6166 12.2053C9.15278 10.7416 9.15278 8.35989 10.6166 6.89605C11.3254 6.18692 12.2683 5.79635 13.2712 5.79635C14.274 5.79635 15.2167 6.18707 15.9258 6.89605C17.3897 8.35989 17.3897 10.7416 15.9258 12.2053Z" fill="#4EB176"/>
</svg>
