<svg width="24" height="23" viewBox="0 0 24 23" fill="none" xmlns="http://www.w3.org/2000/svg">
<path d="M12 23C18.6274 23 24 17.8513 24 11.5C24 5.14873 18.6274 0 12 0C5.37258 0 0 5.14873 0 11.5C0 17.8513 5.37258 23 12 23Z" fill="#4EB176"/>
<path d="M6.3607 4.59117L6.36033 4.59135C4.971 5.28602 4.38811 6.89234 5.02467 8.26461C5.94094 10.24 7.17122 12.0469 8.65599 13.6293L9.77813 14.7047L17.2347 21.8506C19.1012 20.982 20.697 19.6633 21.8695 18.0419L19.1181 15.4052C19.012 15.2554 18.8758 15.1222 18.7111 15.0152L8.33199 5.06855C7.89633 4.45335 7.04845 4.24725 6.3607 4.59117Z" fill="#199B46"/>
<path d="M16.3873 13.5044C16.0033 13.2547 15.4988 13.256 15.1162 13.5076L14.5653 13.87C13.9517 14.2736 13.1357 14.2516 12.546 13.8167C11.9901 13.4067 11.4596 12.967 10.9558 12.5012C10.4696 12.0184 10.011 11.51 9.58313 10.9773C9.12919 10.4121 9.10636 9.63011 9.52749 9.04204L9.90558 8.51412C10.1681 8.14746 10.1695 7.66402 9.90891 7.29601L8.33203 5.06901C7.89642 4.45385 7.04855 4.24775 6.36075 4.59163L6.36033 4.59181C4.971 5.28648 4.38811 6.8928 5.02467 8.26507C5.94094 10.2405 7.17122 12.0474 8.65599 13.6298L9.77813 14.7052C11.4293 16.128 13.3148 17.3071 15.3761 18.1852C16.8081 18.7952 18.4842 18.2366 19.2091 16.9052L19.2092 16.9048C19.5681 16.2457 19.3531 15.4331 18.7111 15.0156L16.3873 13.5044Z" fill="white"/>
</svg>
