<svg width="23" height="26" viewBox="0 0 23 26" fill="none" xmlns="http://www.w3.org/2000/svg">
<path d="M23 8.58203C23 6.88543 23 5.69852 23 5.58594C23 4.3259 22.0932 3.30078 20.9785 3.30078H20.709V6.09375C20.709 6.51442 20.4073 6.85547 20.0352 6.85547C19.663 6.85547 19.3613 6.51442 19.3613 6.09375C19.3613 5.23864 19.3613 2.88275 19.3613 2.03125C19.3613 1.61058 19.0596 1.26953 18.6875 1.26953C18.3154 1.26953 18.0137 1.61058 18.0137 2.03125V3.30078H13.5215V6.09375C13.5215 6.51442 13.2198 6.85547 12.8477 6.85547C12.4755 6.85547 12.1738 6.51442 12.1738 6.09375C12.1738 5.23864 12.1738 2.88275 12.1738 2.03125C12.1738 1.61058 11.8721 1.26953 11.5 1.26953C11.1279 1.26953 10.8262 1.61058 10.8262 2.03125V3.30078H6.33398V6.09375C6.33398 6.51442 6.03229 6.85547 5.66016 6.85547C5.28802 6.85547 4.98633 6.51442 4.98633 6.09375C4.98633 5.23864 4.98633 2.88275 4.98633 2.03125C4.98633 1.61058 4.68463 1.26953 4.3125 1.26953C3.94037 1.26953 3.63867 1.61058 3.63867 2.03125V3.30078H2.02148C0.906838 3.30078 0 4.3259 0 5.58594V8.58203H23Z" fill="#4EB176"/>
<path d="M0 10.1055V22.4453C0 23.7053 0.906838 24.7305 2.02148 24.7305H20.9785C22.0932 24.7305 23 23.7053 23 22.4453C23 22.119 23 14.99 23 10.1055C22.5807 10.1055 0.231977 10.1055 0 10.1055ZM6.46875 20.668H5.03125C4.65912 20.668 4.35742 20.3269 4.35742 19.9062C4.35742 19.4856 4.65912 19.1445 5.03125 19.1445H6.46875C6.84088 19.1445 7.14258 19.4856 7.14258 19.9062C7.14258 20.3269 6.84088 20.668 6.46875 20.668ZM6.46875 17.418H5.03125C4.65912 17.418 4.35742 17.0769 4.35742 16.6562C4.35742 16.2356 4.65912 15.8945 5.03125 15.8945H6.46875C6.84088 15.8945 7.14258 16.2356 7.14258 16.6562C7.14258 17.0769 6.84088 17.418 6.46875 17.418ZM6.46875 14.168H5.03125C4.65912 14.168 4.35742 13.8269 4.35742 13.4062C4.35742 12.9856 4.65912 12.6445 5.03125 12.6445H6.46875C6.84088 12.6445 7.14258 12.9856 7.14258 13.4062C7.14258 13.8269 6.84088 14.168 6.46875 14.168ZM12.2188 20.668H10.7812C10.4091 20.668 10.1074 20.3269 10.1074 19.9062C10.1074 19.4856 10.4091 19.1445 10.7812 19.1445H12.2188C12.5909 19.1445 12.8926 19.4856 12.8926 19.9062C12.8926 20.3269 12.5909 20.668 12.2188 20.668ZM12.2188 17.418H10.7812C10.4091 17.418 10.1074 17.0769 10.1074 16.6562C10.1074 16.2356 10.4091 15.8945 10.7812 15.8945H12.2188C12.5909 15.8945 12.8926 16.2356 12.8926 16.6562C12.8926 17.0769 12.5909 17.418 12.2188 17.418ZM12.2188 14.168H10.7812C10.4091 14.168 10.1074 13.8269 10.1074 13.4062C10.1074 12.9856 10.4091 12.6445 10.7812 12.6445H12.2188C12.5909 12.6445 12.8926 12.9856 12.8926 13.4062C12.8926 13.8269 12.5909 14.168 12.2188 14.168ZM17.9688 20.668H16.5312C16.1591 20.668 15.8574 20.3269 15.8574 19.9062C15.8574 19.4856 16.1591 19.1445 16.5312 19.1445H17.9688C18.3409 19.1445 18.6426 19.4856 18.6426 19.9062C18.6426 20.3269 18.3409 20.668 17.9688 20.668ZM17.9688 17.418H16.5312C16.1591 17.418 15.8574 17.0769 15.8574 16.6562C15.8574 16.2356 16.1591 15.8945 16.5312 15.8945H17.9688C18.3409 15.8945 18.6426 16.2356 18.6426 16.6562C18.6426 17.0769 18.3409 17.418 17.9688 17.418ZM17.9688 14.168H16.5312C16.1591 14.168 15.8574 13.8269 15.8574 13.4062C15.8574 12.9856 16.1591 12.6445 16.5312 12.6445H17.9688C18.3409 12.6445 18.6426 12.9856 18.6426 13.4062C18.6426 13.8269 18.3409 14.168 17.9688 14.168Z" fill="#4EB176"/>
</svg>
