<svg width="28" height="28" viewBox="0 0 28 28" fill="none" xmlns="http://www.w3.org/2000/svg">
<path d="M13.5335 15.1666C14.8866 15.1666 15.9835 14.0697 15.9835 12.7166C15.9835 11.3635 14.8866 10.2666 13.5335 10.2666C12.1804 10.2666 11.0835 11.3635 11.0835 12.7166C11.0835 14.0697 12.1804 15.1666 13.5335 15.1666Z" stroke="#4B4B5A" stroke-width="1.5" stroke-linecap="round" stroke-linejoin="round"/>
<path d="M18.1532 17.3364L14.6881 20.8016C14.3818 21.1075 13.9666 21.2794 13.5337 21.2794C13.1008 21.2794 12.6856 21.1075 12.3794 20.8016L8.91345 17.3364C7.99978 16.4227 7.37758 15.2586 7.12551 13.9913C6.87345 12.7239 7.00285 11.4103 7.49736 10.2165C7.99186 9.02274 8.82925 8.00239 9.90365 7.28451C10.978 6.56664 12.2412 6.18347 13.5333 6.18347C14.8255 6.18347 16.0886 6.56664 17.163 7.28451C18.2374 8.00239 19.0748 9.02274 19.5693 10.2165C20.0638 11.4103 20.1932 12.7239 19.9412 13.9913C19.6891 15.2586 19.0669 16.4227 18.1532 17.3364V17.3364Z" stroke="#4B4B5A" stroke-width="1.5" stroke-linecap="round" stroke-linejoin="round"/>
</svg>
