<svg width="17" height="16" viewBox="0 0 17 16" fill="none" xmlns="http://www.w3.org/2000/svg">
<path d="M4.3221 2.6665H6.98877L8.3221 5.99984L6.65544 6.99984C7.36941 8.44752 8.54108 9.6192 9.98877 10.3332L10.9888 8.6665L14.3221 9.99984V12.6665C14.3221 13.0201 14.1816 13.3593 13.9316 13.6093C13.6815 13.8594 13.3424 13.9998 12.9888 13.9998C10.3883 13.8418 7.93554 12.7375 6.09332 10.8953C4.25111 9.05307 3.1468 6.60033 2.98877 3.99984C2.98877 3.64622 3.12925 3.30708 3.37929 3.05703C3.62934 2.80698 3.96848 2.6665 4.3221 2.6665" stroke="#4EB176" stroke-linecap="round" stroke-linejoin="round"/>
<path d="M10.9888 4.6665V4.67317" stroke="#4EB176" stroke-linecap="round" stroke-linejoin="round"/>
<path d="M12.9888 4.6665V4.67317" stroke="#4EB176" stroke-linecap="round" stroke-linejoin="round"/>
<path d="M14.9888 4.6665V4.67317" stroke="#4EB176" stroke-linecap="round" stroke-linejoin="round"/>
</svg>
