<svg width="24" height="25" viewBox="0 0 24 25" fill="none" xmlns="http://www.w3.org/2000/svg">
<path d="M5 12.5303H3L12 3.53027L21 12.5303H19" stroke="#444444" stroke-width="1.5" stroke-linecap="round" stroke-linejoin="round"/>
<path d="M5 12.5303V19.5303C5 20.0607 5.21071 20.5694 5.58579 20.9445C5.96086 21.3196 6.46957 21.5303 7 21.5303H17C17.5304 21.5303 18.0391 21.3196 18.4142 20.9445C18.7893 20.5694 19 20.0607 19 19.5303V12.5303" stroke="#444444" stroke-width="1.5" stroke-linecap="round" stroke-linejoin="round"/>
<path d="M9 21.5303V15.5303C9 14.9998 9.21071 14.4911 9.58579 14.1161C9.96086 13.741 10.4696 13.5303 11 13.5303H13C13.5304 13.5303 14.0391 13.741 14.4142 14.1161C14.7893 14.4911 15 14.9998 15 15.5303V21.5303" stroke="#444444" stroke-width="1.5" stroke-linecap="round" stroke-linejoin="round"/>
</svg>
