<svg width="19" height="18" viewBox="0 0 19 18" fill="none" xmlns="http://www.w3.org/2000/svg">
<path d="M3.77686 5.3916H15.5555" stroke="white" stroke-width="1.25" stroke-linecap="round" stroke-linejoin="round"/>
<path d="M8.19385 8.33594V12.7529" stroke="white" stroke-width="1.25" stroke-linecap="round" stroke-linejoin="round"/>
<path d="M11.1382 8.33594V12.7529" stroke="white" stroke-width="1.25" stroke-linecap="round" stroke-linejoin="round"/>
<path d="M4.5127 5.3916L5.24886 14.2256C5.24886 14.616 5.40398 14.9905 5.68009 15.2666C5.95621 15.5428 6.3307 15.6979 6.72118 15.6979H12.6105C13.001 15.6979 13.3755 15.5428 13.6516 15.2666C13.9277 14.9905 14.0828 14.616 14.0828 14.2256L14.819 5.3916" stroke="white" stroke-width="1.25" stroke-linecap="round" stroke-linejoin="round"/>
<path d="M7.45752 5.39143V3.18294C7.45752 2.9877 7.53508 2.80045 7.67314 2.66239C7.81119 2.52434 7.99844 2.44678 8.19368 2.44678H11.1383C11.3336 2.44678 11.5208 2.52434 11.6589 2.66239C11.7969 2.80045 11.8745 2.9877 11.8745 3.18294V5.39143" stroke="white" stroke-width="1.25" stroke-linecap="round" stroke-linejoin="round"/>
</svg>
