<svg width="17" height="16" viewBox="0 0 17 16" fill="none" xmlns="http://www.w3.org/2000/svg">
<path d="M8.98877 9.3335C10.0933 9.3335 10.9888 8.43807 10.9888 7.3335C10.9888 6.22893 10.0933 5.3335 8.98877 5.3335C7.8842 5.3335 6.98877 6.22893 6.98877 7.3335C6.98877 8.43807 7.8842 9.3335 8.98877 9.3335Z" stroke="#4EB176" stroke-linecap="round" stroke-linejoin="round"/>
<path d="M12.7601 11.1045L9.9314 13.9331C9.68139 14.1829 9.34245 14.3232 8.98906 14.3232C8.63568 14.3232 8.29674 14.1829 8.04673 13.9331L5.2174 11.1045C4.47155 10.3586 3.96362 9.40827 3.75786 8.37371C3.55209 7.33916 3.65772 6.26681 4.0614 5.29229C4.46508 4.31777 5.14866 3.48483 6.02572 2.89881C6.90277 2.31279 7.93391 2 8.98873 2C10.0436 2 11.0747 2.31279 11.9517 2.89881C12.8288 3.48483 13.5124 4.31777 13.9161 5.29229C14.3197 6.26681 14.4254 7.33916 14.2196 8.37371C14.0138 9.40827 13.5059 10.3586 12.7601 11.1045V11.1045Z" stroke="#4EB176" stroke-linecap="round" stroke-linejoin="round"/>
</svg>
