<svg width="30" height="30" viewBox="0 0 30 30" fill="none" xmlns="http://www.w3.org/2000/svg">
<path d="M16.7141 9.71429V15.4286H19.2755C19.4168 15.4286 19.5549 15.4705 19.6723 15.549C19.7897 15.6275 19.8813 15.739 19.9353 15.8695C19.9894 16 20.0035 16.1436 19.976 16.2822C19.9484 16.4207 19.8804 16.548 19.7805 16.6479L15.0763 21.3521C14.9423 21.486 14.7607 21.5613 14.5713 21.5613C14.3818 21.5613 14.2002 21.486 14.0663 21.3521L9.36197 16.6479C9.2621 16.548 9.1941 16.4207 9.16655 16.2822C9.139 16.1436 9.15315 16 9.2072 15.8695C9.26125 15.739 9.35277 15.6275 9.47021 15.549C9.58765 15.4705 9.72572 15.4286 9.86697 15.4286H12.4284V9.71429C12.4284 9.52485 12.5036 9.34316 12.6376 9.20921C12.7716 9.07525 12.9532 9 13.1427 9H15.9998C16.1893 9 16.3709 9.07525 16.5049 9.20921C16.6389 9.34316 16.7141 9.52485 16.7141 9.71429V9.71429Z" stroke="#6C757D" stroke-width="1.25" stroke-linecap="round" stroke-linejoin="round"/>
</svg>
