<svg width="16" height="16" viewBox="0 0 16 16" fill="none" xmlns="http://www.w3.org/2000/svg">
<path d="M3.00019 8.33352L8.33352 3.00019C8.95236 2.38135 9.79169 2.03369 10.6669 2.03369C11.542 2.03369 12.3814 2.38135 13.0002 3.00019C13.619 3.61903 13.9667 4.45835 13.9667 5.33352C13.9667 6.20869 13.619 7.04802 13.0002 7.66686L7.66686 13.0002C7.04802 13.619 6.20869 13.9667 5.33352 13.9667C4.45835 13.9667 3.61903 13.619 3.00019 13.0002C2.38135 12.3814 2.03369 11.542 2.03369 10.6669C2.03369 9.79169 2.38135 8.95236 3.00019 8.33352" stroke="#4EB176" stroke-linecap="round" stroke-linejoin="round"/>
<path d="M5.6665 5.6665L10.3332 10.3332" stroke="#4EB176" stroke-linecap="round" stroke-linejoin="round"/>
</svg>
