<svg width="16" height="16" viewBox="0 0 16 16" fill="none" xmlns="http://www.w3.org/2000/svg">
<path d="M6.00016 3.3335H4.66683C4.31321 3.3335 3.97407 3.47397 3.72402 3.72402C3.47397 3.97407 3.3335 4.31321 3.3335 4.66683V12.6668C3.3335 13.0205 3.47397 13.3596 3.72402 13.6096C3.97407 13.8597 4.31321 14.0002 4.66683 14.0002H11.3335C11.6871 14.0002 12.0263 13.8597 12.2763 13.6096C12.5264 13.3596 12.6668 13.0205 12.6668 12.6668V4.66683C12.6668 4.31321 12.5264 3.97407 12.2763 3.72402C12.0263 3.47397 11.6871 3.3335 11.3335 3.3335H10.0002" stroke="#4EB176" stroke-linecap="round" stroke-linejoin="round"/>
<path d="M8.66667 2H7.33333C6.59695 2 6 2.59695 6 3.33333C6 4.06971 6.59695 4.66667 7.33333 4.66667H8.66667C9.40305 4.66667 10 4.06971 10 3.33333C10 2.59695 9.40305 2 8.66667 2Z" stroke="#4EB176" stroke-linecap="round" stroke-linejoin="round"/>
<path d="M6.6665 9.3335H9.33317" stroke="#4EB176" stroke-linecap="round" stroke-linejoin="round"/>
<path d="M8 8V10.6667" stroke="#4EB176" stroke-linecap="round" stroke-linejoin="round"/>
</svg>
