<svg width="16" height="15" viewBox="0 0 16 15" fill="none" xmlns="http://www.w3.org/2000/svg">
<path d="M1.40565 0.95874H14.7366C14.933 0.95874 15.1214 1.03677 15.2603 1.17566C15.3992 1.31455 15.4772 1.50293 15.4772 1.69935V13.5491C15.4772 13.7455 15.3992 13.9339 15.2603 14.0728C15.1214 14.2117 14.933 14.2897 14.7366 14.2897H1.40565C1.20923 14.2897 1.02085 14.2117 0.881959 14.0728C0.743067 13.9339 0.665039 13.7455 0.665039 13.5491V1.69935C0.665039 1.50293 0.743067 1.31455 0.881959 1.17566C1.02085 1.03677 1.20923 0.95874 1.40565 0.95874ZM13.996 4.09744L8.12446 9.35577L2.14626 4.08115V12.8085H13.996V4.09744ZM2.52471 2.43996L8.11631 7.3739L13.6272 2.43996H2.52471Z" fill="#4EB176"/>
</svg>
