<svg width="6" height="14" viewBox="0 0 6 14" fill="none" xmlns="http://www.w3.org/2000/svg">
<path d="M4.17403 12.1538H5.64641V12.7885C5.5505 12.8392 5.41793 12.8872 5.2487 12.9323C5.0851 12.9774 4.90176 13.0169 4.69867 13.0508C4.49559 13.0846 4.28404 13.11 4.06403 13.1269C3.84402 13.1439 3.63247 13.1523 3.42938 13.1523C3.25451 13.1523 3.09373 13.141 2.94706 13.1185C2.80038 13.1015 2.67063 13.0621 2.55781 13C2.45062 12.9436 2.366 12.8646 2.30395 12.7631C2.2419 12.6559 2.21087 12.5149 2.21087 12.34V5.16427H0.721572V4.52962C0.840039 4.47885 1.00646 4.4309 1.22083 4.38577C1.43519 4.34064 1.66931 4.30397 1.92316 4.27577C2.18266 4.24756 2.44498 4.225 2.71012 4.20807C2.9809 4.19115 3.2263 4.18269 3.44631 4.18269C3.56478 4.18269 3.66914 4.18551 3.7594 4.19115C3.84966 4.19679 3.92582 4.21371 3.98787 4.24192C4.04993 4.27013 4.09506 4.31526 4.12326 4.37731C4.15711 4.43372 4.17403 4.51834 4.17403 4.63117V12.1538ZM2.00778 1.39025C2.00778 1.2323 2.03881 1.0828 2.10086 0.941773C2.16292 0.800741 2.24754 0.679453 2.35472 0.57791C2.46191 0.476367 2.58883 0.397389 2.73551 0.340977C2.88218 0.278923 3.03732 0.247896 3.20091 0.247896C3.36451 0.247896 3.51965 0.278923 3.66632 0.340977C3.81299 0.397389 3.93992 0.476367 4.0471 0.57791C4.15429 0.679453 4.23891 0.800741 4.30096 0.941773C4.36302 1.0828 4.39404 1.2323 4.39404 1.39025C4.39404 1.54821 4.36302 1.69488 4.30096 1.83027C4.23891 1.96566 4.15429 2.08413 4.0471 2.18567C3.93992 2.28722 3.81299 2.36902 3.66632 2.43107C3.51965 2.48748 3.36451 2.51569 3.20091 2.51569C3.03732 2.51569 2.88218 2.48748 2.73551 2.43107C2.58883 2.36902 2.46191 2.28722 2.35472 2.18567C2.24754 2.08413 2.16292 1.96566 2.10086 1.83027C2.03881 1.69488 2.00778 1.54821 2.00778 1.39025Z" fill="#4EB176"/>
</svg>
