<svg width="16" height="15" viewBox="0 0 16 15" fill="none" xmlns="http://www.w3.org/2000/svg">
<g clip-path="url(#clip0)">
<path d="M6.30118 14.926C5.59977 14.926 4.89849 14.6694 4.36356 14.1557C4.11052 13.9127 3.90966 13.6298 3.76655 13.3147C3.39632 12.4995 2.7365 11.8497 1.90865 11.4851C1.58869 11.3442 1.30136 11.1464 1.0546 10.8972C0.00895134 9.84117 0.0121661 8.12587 1.06177 7.07347C1.4888 6.6453 2.03223 6.37258 2.6333 6.28473C2.97525 6.23475 3.27931 6.08459 3.51258 5.8505L3.53068 5.8325C4.18122 5.19188 5.10908 4.91145 6.1433 5.04291C7.13451 5.16893 8.11161 5.66299 8.89466 6.43411C9.67771 7.20523 10.1794 8.16743 10.3074 9.14353C10.4409 10.162 10.1561 11.0757 9.50558 11.7164L9.48915 11.7324C9.25075 11.9632 9.09814 12.263 9.04763 12.5995C8.95872 13.1918 8.68183 13.7273 8.24698 14.1481C7.71128 14.6666 7.00616 14.926 6.30118 14.926ZM5.66038 5.88825C5.08024 5.88825 4.54999 6.07236 4.16211 6.45433L4.15011 6.46626C3.77935 6.83832 3.30023 7.07628 2.76436 7.1546C2.35704 7.21414 1.9886 7.39916 1.69883 7.68967C0.986853 8.40351 0.98465 9.56701 1.69391 10.2833C1.86167 10.4527 2.05658 10.587 2.27319 10.6824C3.30181 11.1354 4.12166 11.9428 4.58169 12.9557C4.67858 13.1691 4.81494 13.361 4.98695 13.5262C5.71452 14.2248 6.8962 14.2225 7.62109 13.521C7.91619 13.2354 8.10402 12.8723 8.16426 12.471C8.24344 11.9435 8.48502 11.4714 8.86293 11.1056L8.87415 11.0946C9.32454 10.6511 9.519 9.99819 9.42173 9.25618C9.31888 8.47178 8.90746 7.6904 8.26321 7.05597C7.48777 6.29229 6.51951 5.88825 5.66038 5.88825Z" fill="#2EAD5A"/>
<path d="M9.27445 4.5299C8.75944 4.5299 8.29822 4.35098 7.95576 4.01374C7.55607 3.62016 7.37539 3.06719 7.44697 2.45667C7.5141 1.88417 7.79937 1.32436 8.25027 0.880339C8.70113 0.436345 9.2696 0.155415 9.85096 0.0892866C10.471 0.0188784 11.0324 0.196775 11.4321 0.590322C11.8318 0.983929 12.0125 1.53691 11.9409 2.14742C11.8738 2.71992 11.5885 3.27973 11.1377 3.72372C10.6868 4.16775 10.1183 4.44868 9.53693 4.51478C9.44814 4.52489 9.36054 4.5299 9.27445 4.5299ZM10.1094 0.953825C10.0585 0.953825 10.0065 0.956815 9.95338 0.962853C9.57131 1.00629 9.19069 1.19782 8.88169 1.50211C8.57266 1.80643 8.37817 2.18125 8.33406 2.5575C8.29438 2.89577 8.3843 3.19209 8.58719 3.39191C8.7901 3.59173 9.09109 3.68022 9.4345 3.64121C9.81658 3.59777 10.1972 3.40624 10.5062 3.10192C10.8153 2.7976 11.0097 2.42281 11.0538 2.04656C11.0935 1.7083 11.0036 1.41198 10.8007 1.21215C10.6292 1.04323 10.3876 0.953825 10.1094 0.953825Z" fill="#2EAD5A"/>
<path d="M3.28022 4.75352C2.76518 4.75352 2.30399 4.5746 1.96153 4.23739C1.56183 3.84378 1.38112 3.29084 1.45271 2.68032C1.51983 2.10782 1.80511 1.54801 2.256 1.10399C2.70687 0.659996 3.27537 0.379067 3.8567 0.312938C4.47675 0.242471 5.0382 0.420426 5.43787 0.813974C5.83757 1.20758 6.01827 1.76056 5.94669 2.37107C5.87957 2.94357 5.59429 3.50338 5.14339 3.94737C4.69253 4.3914 4.12403 4.67233 3.54267 4.73843C3.45394 4.74854 3.3663 4.75352 3.28022 4.75352ZM4.11519 1.17748C4.06432 1.17748 4.01226 1.18047 3.95915 1.1865C3.57708 1.22994 3.19646 1.42147 2.88746 1.72576C2.5784 2.03011 2.38394 2.40493 2.33979 2.78118C2.30015 3.11945 2.39004 3.41577 2.59295 3.61559C2.79584 3.81538 3.09668 3.90399 3.44027 3.86486C3.82235 3.82142 4.20297 3.62989 4.512 3.32557C4.82103 3.02125 5.01552 2.64643 5.0596 2.27021C5.09928 1.93195 5.00936 1.63563 4.80647 1.43581C4.63493 1.26688 4.39332 1.17748 4.11519 1.17748Z" fill="#2EAD5A"/>
<path d="M12.8227 8.02405C12.3077 8.02405 11.8465 7.84512 11.504 7.50791C11.1043 7.11431 10.9236 6.56136 10.9952 5.95084C11.0623 5.37835 11.3476 4.81854 11.7985 4.37452C12.2494 3.93052 12.8179 3.64959 13.3992 3.58349C14.0191 3.51288 14.5807 3.69095 14.9804 4.08453C15.3801 4.47811 15.5608 5.03108 15.4892 5.6416C15.4221 6.2141 15.1368 6.7739 14.6859 7.21793C14.235 7.66192 13.6665 7.94285 13.0852 8.00898C12.9964 8.01903 12.9088 8.02405 12.8227 8.02405ZM13.6577 4.448C13.6068 4.448 13.5547 4.45099 13.5016 4.45703C13.1196 4.50047 12.7389 4.692 12.4299 4.99632C12.1209 5.30064 11.9264 5.67543 11.8823 6.05168C11.8426 6.38994 11.9325 6.68626 12.1354 6.88608C12.3384 7.08591 12.6393 7.17452 12.9828 7.13535C13.3648 7.09191 13.7455 6.90039 14.0545 6.5961C14.3635 6.29178 14.558 5.91696 14.6021 5.54071C14.6418 5.20244 14.5518 4.90612 14.349 4.7063C14.1774 4.53738 13.9358 4.448 13.6577 4.448Z" fill="#2EAD5A"/>
<path d="M12.5224 13.8551C12.0074 13.8551 11.5462 13.6762 11.2037 13.339C10.804 12.9454 10.6233 12.3924 10.6949 11.7819C10.762 11.2094 11.0473 10.6496 11.4982 10.2056C11.9491 9.76157 12.5176 9.48064 13.0989 9.41454C13.7188 9.34395 14.2804 9.522 14.6801 9.91557C15.0798 10.3092 15.2605 10.8621 15.1889 11.4726C15.1218 12.0451 14.8365 12.605 14.3856 13.049C13.9347 13.493 13.3662 13.7739 12.7849 13.84C12.6961 13.8501 12.6085 13.8551 12.5224 13.8551ZM13.3574 10.2791C13.3065 10.2791 13.2544 10.2821 13.2013 10.2881C12.8193 10.3315 12.4386 10.5231 12.1296 10.8274C11.8206 11.1317 11.6261 11.5065 11.582 11.8828C11.5423 12.221 11.6322 12.5173 11.8351 12.7172C12.038 12.917 12.339 13.0055 12.6825 12.9664C13.0645 12.923 13.4451 12.7315 13.7542 12.4272C14.0632 12.1229 14.2577 11.748 14.3018 11.3718C14.3415 11.0335 14.2515 10.7372 14.0487 10.5374C13.8771 10.3685 13.6355 10.2791 13.3574 10.2791Z" fill="#2EAD5A"/>
</g>
<defs>
<clipPath id="clip0">
<rect width="15.2321" height="15" fill="white" transform="translate(0.272461)"/>
</clipPath>
</defs>
</svg>
