<svg width="23" height="22" viewBox="0 0 23 22" fill="none" xmlns="http://www.w3.org/2000/svg">
<g clip-path="url(#clip0)">
<path d="M22.2236 18.2304C22.2235 18.2304 22.2233 18.2304 22.2232 18.2304L20.9709 18.2318L20.9695 17.1916C20.9693 17.0136 20.8227 16.8695 20.642 16.8695C20.6419 16.8695 20.6417 16.8695 20.6416 16.8695C20.4607 16.8697 20.3143 17.0143 20.3145 17.1924L20.3159 18.2326L15.4164 18.2382L15.4115 14.1054L18.8024 14.1015C18.9754 14.1013 19.138 14.0348 19.2602 13.9142C19.3824 13.7936 19.4495 13.6334 19.4493 13.463L19.4454 10.0935C19.4452 9.92314 19.3776 9.76301 19.2552 9.64273C19.1329 9.52263 18.9705 9.4565 18.7978 9.4565C18.7975 9.4565 18.7972 9.4565 18.7969 9.4565L15.406 9.46032L15.4045 8.12661L20.3039 8.12111L20.3127 15.7303C20.3129 15.9083 20.4595 16.0524 20.6402 16.0524H20.6406C20.8215 16.0522 20.968 15.9077 20.9678 15.7296L20.959 8.12038L21.6036 8.11965C22.1012 8.11896 22.5055 7.71983 22.5048 7.23005L22.5039 6.38414C22.5033 5.89423 22.0984 5.49617 21.6014 5.49617C21.601 5.49617 21.6005 5.49617 21.6002 5.49617L19.5024 5.49832C19.3216 5.49849 19.1751 5.64306 19.1753 5.82117C19.1755 5.99919 19.3221 6.14333 19.5028 6.14333H19.5031L21.601 6.14118H21.6013C21.7377 6.14118 21.8488 6.25049 21.8489 6.38491L21.8498 7.23082C21.85 7.36507 21.7391 7.47446 21.6028 7.47464L15.4037 7.48156L15.4021 6.14811L18.0185 6.14505C18.1994 6.14484 18.3458 6.00027 18.3456 5.82216C18.3454 5.64418 18.1988 5.50004 18.0181 5.50004C18.018 5.50004 18.0178 5.50004 18.0177 5.50004L15.4014 5.50309L15.3996 3.98878C15.3993 3.75098 15.305 3.52751 15.1341 3.35959C14.9634 3.19189 14.7367 3.09961 14.4956 3.09961C14.4952 3.09961 14.4948 3.09961 14.4945 3.09961L8.23057 3.10675C7.9891 3.10701 7.76217 3.19989 7.59165 3.36824C7.42113 3.53658 7.32734 3.76023 7.32764 3.99802L7.32943 5.51238L1.13027 5.51948C0.889189 5.51974 0.662648 5.61253 0.492393 5.78075C0.32227 5.94884 0.228737 6.17214 0.229042 6.40946L0.230003 7.2555C0.230265 7.49287 0.324409 7.71591 0.49497 7.88349C0.665312 8.05085 0.89159 8.14295 1.13219 8.14295H1.13333L1.78164 8.14222V9.10785C1.78164 9.28596 1.92827 9.43035 2.10914 9.43035C2.29 9.43035 2.43663 9.28596 2.43663 9.10785V8.14145L7.33245 8.13586L7.33402 9.46948L3.94334 9.47335C3.77029 9.47353 3.60772 9.54005 3.48554 9.66062C3.36336 9.7812 3.2962 9.94146 3.29642 10.1119L3.30035 13.4814C3.30057 13.6517 3.36812 13.8119 3.49056 13.9321C3.61283 14.0522 3.77522 14.1184 3.94796 14.1184H3.94879L7.33952 14.1146L7.34437 18.2474L2.43668 18.2529V10.5699C2.43668 10.3918 2.29005 10.2474 2.10918 10.2474C1.92831 10.2474 1.78168 10.3918 1.78168 10.5699V18.2537L0.537719 18.2551C0.35681 18.2554 0.210353 18.3999 0.210572 18.578C0.21079 18.756 0.357334 18.9002 0.538068 18.9002H0.538461L22.2239 18.8754C22.4048 18.8752 22.5513 18.7306 22.551 18.5525C22.5508 18.3746 22.4043 18.2304 22.2236 18.2304ZM18.7903 10.1015L18.7943 13.4565L15.4107 13.4604L15.4068 10.1054L18.7903 10.1015ZM1.13258 7.49798C1.1325 7.49798 1.13241 7.49798 1.13228 7.49798C1.0663 7.49798 1.00429 7.47274 0.957614 7.4269C0.910891 7.38098 0.885084 7.31988 0.884997 7.25477L0.884036 6.40873C0.883949 6.34354 0.909624 6.28227 0.956347 6.23608C1.00298 6.18999 1.06503 6.16457 1.13106 6.16449L7.33018 6.15744L7.33175 7.49093L1.13258 7.49798ZM3.95539 13.4735L3.95146 10.1185L7.33481 10.1146L7.33874 13.4696L3.95539 13.4735ZM7.98259 3.99729C7.98251 3.9318 8.00836 3.87018 8.05534 3.82383C8.10233 3.77747 8.16481 3.75189 8.23132 3.7518L14.4953 3.74466H14.4956C14.6327 3.74466 14.7444 3.85449 14.7446 3.9896L14.7613 18.239L13.9429 18.2399L13.9362 12.5525C13.9359 12.2806 13.8299 12.0248 13.6377 11.8323C13.4441 11.6383 13.1865 11.5315 12.9121 11.5315C12.9117 11.5315 12.9112 11.5315 12.9109 11.5315L9.83417 11.5351C9.55934 11.5354 9.30145 11.6428 9.10805 11.8375C8.91635 12.0305 8.81094 12.2865 8.81129 12.5584L8.81797 18.2458L7.99932 18.2468L7.98259 3.99729ZM9.46629 12.5575C9.46616 12.4555 9.50524 12.36 9.57628 12.2884C9.64562 12.2186 9.7375 12.1801 9.83496 12.18L12.9116 12.1765H12.9121C13.0094 12.1765 13.1012 12.2148 13.1705 12.2843C13.2418 12.3557 13.2811 12.4512 13.2812 12.5532L13.2879 18.2406L9.47297 18.2449L9.46629 12.5575Z" fill="#2EAD5A"/>
<path d="M9.2499 8.60699H9.25069L10.3427 8.60575L10.344 9.68111C10.3444 10.0129 10.6186 10.2825 10.9553 10.2825H10.9561L11.7859 10.2815C11.9492 10.2814 12.1027 10.2186 12.218 10.1047C12.3334 9.99089 12.3968 9.83957 12.3966 9.67874L12.3953 8.60338L13.4873 8.60213C13.8244 8.60179 14.0983 8.3314 14.098 7.99935L14.097 7.18212C14.0969 7.0213 14.0331 6.87019 13.9174 6.75659C13.802 6.64315 13.6487 6.58075 13.4857 6.58075C13.4854 6.58075 13.4851 6.58075 13.4849 6.58075L12.3929 6.582L12.3916 5.50668C12.3914 5.34586 12.3277 5.19475 12.212 5.08115C12.0966 4.96771 11.9433 4.90527 11.7803 4.90527C11.7801 4.90527 11.7797 4.90527 11.7795 4.90527L10.9496 4.90622C10.7863 4.90639 10.6329 4.96922 10.5175 5.08308C10.4022 5.1969 10.3388 5.34822 10.3389 5.509L10.3402 6.58437L9.24825 6.58561C9.08493 6.58579 8.93145 6.64857 8.81613 6.76243C8.70076 6.8763 8.63736 7.02758 8.63757 7.1884L8.63853 8.00558C8.63871 8.16641 8.70246 8.31755 8.81809 8.43112C8.93359 8.5446 9.0869 8.60699 9.2499 8.60699ZM10.6686 7.22903C10.8494 7.22882 10.9959 7.08425 10.9957 6.90614L10.9941 5.55123L11.7367 5.55037L11.7383 6.90532C11.7383 6.91646 11.7389 6.92743 11.7401 6.93826C11.757 7.10076 11.8964 7.22744 12.0658 7.22744H12.0662L13.4421 7.22585L13.443 7.95717L12.067 7.95876C11.8862 7.95897 11.7397 8.10354 11.7399 8.28165L11.7415 9.63656L10.9989 9.63742L10.9973 8.28247C10.997 8.10449 10.8505 7.96035 10.6698 7.96035C10.6697 7.96035 10.6695 7.96035 10.6694 7.96035L9.29348 7.96194L9.29261 7.23062L10.6686 7.22903Z" fill="#2EAD5A"/>
</g>
<defs>
<clipPath id="clip0">
<rect width="22.3405" height="22" fill="white" transform="translate(0.210571)"/>
</clipPath>
</defs>
</svg>
