<svg width="28" height="28" viewBox="0 0 28 28" fill="none" xmlns="http://www.w3.org/2000/svg">
<path d="M11.0833 12.7167C12.8874 12.7167 14.35 11.2541 14.35 9.45C14.35 7.64587 12.8874 6.18333 11.0833 6.18333C9.27919 6.18333 7.81665 7.64587 7.81665 9.45C7.81665 11.2541 9.27919 12.7167 11.0833 12.7167Z" stroke="#6C757D" stroke-width="1.5" stroke-linecap="round" stroke-linejoin="round"/>
<path d="M6.18335 20.8833V19.25C6.18335 18.3836 6.52752 17.5527 7.14013 16.9401C7.75275 16.3275 8.58364 15.9833 9.45002 15.9833H12.7167C13.5831 15.9833 14.4139 16.3275 15.0266 16.9401C15.6392 17.5527 15.9833 18.3836 15.9833 19.25V20.8833" stroke="#6C757D" stroke-width="1.5" stroke-linecap="round" stroke-linejoin="round"/>
<path d="M16.8 6.28951C17.5027 6.46942 18.1255 6.87808 18.5703 7.45106C19.015 8.02404 19.2565 8.72875 19.2565 9.45409C19.2565 10.1794 19.015 10.8841 18.5703 11.4571C18.1255 12.0301 17.5027 12.4388 16.8 12.6187" stroke="#6C757D" stroke-width="1.5" stroke-linecap="round" stroke-linejoin="round"/>
<path d="M20.8833 20.8833V19.25C20.8792 18.529 20.6366 17.8297 20.1935 17.2609C19.7503 16.6922 19.1315 16.2861 18.4333 16.1058" stroke="#6C757D" stroke-width="1.5" stroke-linecap="round" stroke-linejoin="round"/>
</svg>
