<svg width="23" height="24" viewBox="0 0 23 24" fill="none" xmlns="http://www.w3.org/2000/svg">
<path d="M3.3811 3.77393L20.0542 20.447" stroke="white" stroke-linecap="round" stroke-linejoin="round"/>
<path d="M16.2685 12.9775C16.4098 12.2371 16.3682 11.4734 16.1475 10.7527C15.9267 10.032 15.5334 9.37608 15.0016 8.84187C14.4699 8.30766 13.8158 7.9113 13.0961 7.68721C12.3765 7.46311 11.613 7.41805 10.8719 7.55593M8.44693 8.83142C7.58248 9.69958 7.09723 10.8749 7.09741 12.1C7.09759 13.3251 7.5832 14.5003 8.44791 15.3682C9.31261 16.2361 10.486 16.726 11.7111 16.7307C12.9362 16.7354 14.1133 16.2545 14.9846 15.3932L8.44693 8.83142Z" stroke="white" stroke-linecap="round" stroke-linejoin="round"/>
<path d="M10.7914 3.77393H12.6439M11.7177 7.47905V3.77393V7.47905Z" stroke="white" stroke-linecap="round" stroke-linejoin="round"/>
<path d="M16.9575 5.56079L18.2675 6.87075M14.9926 8.83569L17.6125 6.21577L14.9926 8.83569Z" stroke="white" stroke-linecap="round" stroke-linejoin="round"/>
<path d="M20.0542 11.1843V13.0369M16.3491 12.1106H20.0542H16.3491Z" stroke="white" stroke-linecap="round" stroke-linejoin="round"/>
<path d="M17.6125 18.0054L16.9576 18.6604" stroke="white" stroke-linecap="round" stroke-linejoin="round"/>
<path d="M12.6439 20.447H10.7914M11.7176 16.7419V20.447V16.7419Z" stroke="white" stroke-linecap="round" stroke-linejoin="round"/>
<path d="M6.47778 18.6604L5.16782 17.3504M8.44272 15.3855L5.8228 18.0054L8.44272 15.3855Z" stroke="white" stroke-linecap="round" stroke-linejoin="round"/>
<path d="M3.3811 13.0369L3.3811 11.1843M7.08623 12.1106H3.3811H7.08623Z" stroke="white" stroke-linecap="round" stroke-linejoin="round"/>
<path d="M5.82283 6.21563L5.16785 6.87061" stroke="white" stroke-linecap="round" stroke-linejoin="round"/>
</svg>
