<svg width="23" height="23" viewBox="0 0 23 23" fill="none" xmlns="http://www.w3.org/2000/svg">
<path d="M13.5701 3.2644V6.96953C13.5701 7.2152 13.6677 7.4508 13.8414 7.62451C14.0151 7.79822 14.2507 7.89581 14.4964 7.89581H18.2015" stroke="white" stroke-linecap="round" stroke-linejoin="round"/>
<path d="M16.349 19.9375H7.08615C6.59482 19.9375 6.12361 19.7423 5.77618 19.3949C5.42876 19.0475 5.23358 18.5762 5.23358 18.0849V5.11697C5.23358 4.62564 5.42876 4.15443 5.77618 3.80701C6.12361 3.45958 6.59482 3.2644 7.08615 3.2644H13.5701L18.2015 7.89581V18.0849C18.2015 18.5762 18.0064 19.0475 17.6589 19.3949C17.3115 19.7423 16.8403 19.9375 16.349 19.9375Z" stroke="white" stroke-linecap="round" stroke-linejoin="round"/>
<path d="M8.93872 6.96948H9.865" stroke="white" stroke-linecap="round" stroke-linejoin="round"/>
<path d="M8.93872 12.5273H14.4964" stroke="white" stroke-linecap="round" stroke-linejoin="round"/>
<path d="M12.6438 16.2324H14.4964" stroke="white" stroke-linecap="round" stroke-linejoin="round"/>
</svg>
