<svg width="23" height="23" viewBox="0 0 23 23" fill="none" xmlns="http://www.w3.org/2000/svg">
<path d="M4.48439 11.7438L11.7698 4.45843C12.6151 3.61309 13.7616 3.13818 14.9571 3.13818C16.1526 3.13818 17.2991 3.61309 18.1445 4.45843C18.9898 5.30377 19.4647 6.4503 19.4647 7.64579C19.4647 8.84128 18.9898 9.98781 18.1445 10.8331L10.8591 18.1185C10.0138 18.9639 8.86723 19.4388 7.67174 19.4388C6.47625 19.4388 5.32973 18.9639 4.48439 18.1185C3.63905 17.2732 3.16414 16.1267 3.16414 14.9312C3.16414 13.7357 3.63905 12.5892 4.48439 11.7438" stroke="white" stroke-linecap="round" stroke-linejoin="round"/>
<path d="M8.12708 8.10107L14.5018 14.4758" stroke="white" stroke-linecap="round" stroke-linejoin="round"/>
</svg>
