<svg width="27" height="28" viewBox="0 0 27 28" fill="none" xmlns="http://www.w3.org/2000/svg">
<path d="M10.0442 6.2793H7.8466C7.26377 6.2793 6.70481 6.51083 6.29269 6.92295C5.88056 7.33507 5.64903 7.89403 5.64903 8.47687V21.6623C5.64903 22.2451 5.88056 22.8041 6.29269 23.2162C6.70481 23.6283 7.26377 23.8598 7.8466 23.8598H18.8344C19.4173 23.8598 19.9762 23.6283 20.3884 23.2162C20.8005 22.8041 21.032 22.2451 21.032 21.6623V8.47687C21.032 7.89403 20.8005 7.33507 20.3884 6.92295C19.9762 6.51083 19.4173 6.2793 18.8344 6.2793H16.6369" stroke="white" stroke-width="1.72732" stroke-linecap="round" stroke-linejoin="round"/>
<path d="M14.4393 4.08179H12.2417C11.0281 4.08179 10.0442 5.06567 10.0442 6.27936C10.0442 7.49304 11.0281 8.47692 12.2417 8.47692H14.4393C15.653 8.47692 16.6369 7.49304 16.6369 6.27936C16.6369 5.06567 15.653 4.08179 14.4393 4.08179Z" stroke="white" stroke-width="1.72732" stroke-linecap="round" stroke-linejoin="round"/>
<path d="M11.143 16.1682H15.5381" stroke="white" stroke-width="1.72732" stroke-linecap="round" stroke-linejoin="round"/>
<path d="M13.3405 13.9707V18.3658" stroke="white" stroke-width="1.72732" stroke-linecap="round" stroke-linejoin="round"/>
</svg>
