<svg width="16" height="16" viewBox="0 0 16 16" fill="none" xmlns="http://www.w3.org/2000/svg">
<path d="M12 4V4.00667" stroke="white" stroke-linecap="round" stroke-linejoin="round"/>
<path d="M12 8.66673L9.66665 5.33339C9.44203 4.92742 9.32722 4.46986 9.33356 4.00592C9.33991 3.54199 9.46719 3.08774 9.70283 2.68806C9.93848 2.28838 10.2743 1.9571 10.6772 1.72694C11.0801 1.49679 11.536 1.37573 12 1.37573C12.464 1.37573 12.9199 1.49679 13.3228 1.72694C13.7256 1.9571 14.0615 2.28838 14.2971 2.68806C14.5328 3.08774 14.6601 3.54199 14.6664 4.00592C14.6727 4.46986 14.5579 4.92742 14.3333 5.33339L12 8.66673Z" stroke="white" stroke-linecap="round" stroke-linejoin="round"/>
<path d="M7 3.16675L6 2.66675L2 4.66675V13.3334L6 11.3334L10 13.3334L14 11.3334V10.0001" stroke="white" stroke-linecap="round" stroke-linejoin="round"/>
<path d="M6 2.66675V11.3334" stroke="white" stroke-linecap="round" stroke-linejoin="round"/>
<path d="M10 10V13.3333" stroke="white" stroke-linecap="round" stroke-linejoin="round"/>
</svg>
