<svg width="18" height="19" viewBox="0 0 18 19" fill="none" xmlns="http://www.w3.org/2000/svg">
<g clip-path="url(#clip0)">
<path d="M12.0359 8.8831C11.2259 7.54933 9.84646 6.75293 8.34572 6.75293C6.84513 6.75293 5.46552 7.54933 4.65569 8.8831L2.70397 12.097C2.38015 12.6303 2.23073 13.2462 2.2718 13.8781C2.31286 14.5101 2.54069 15.0986 2.93056 15.5803C3.32072 16.0619 3.83625 16.3909 4.42141 16.5321C5.00657 16.6732 5.60642 16.613 6.15601 16.358L6.19185 16.3412C7.5749 15.7119 9.15569 15.7176 10.5353 16.358C10.8911 16.5231 11.2681 16.6066 11.6485 16.6066C11.8553 16.6066 12.0634 16.5818 12.2695 16.5323C12.8547 16.3912 13.3702 16.0622 13.7605 15.5806C14.1505 15.0991 14.3785 14.5104 14.4197 13.8784C14.4609 13.2462 14.3114 12.6303 13.9876 12.0968L12.0359 8.8831ZM12.9586 14.8567C12.4622 15.4693 11.6591 15.663 10.9601 15.3385C10.1292 14.9528 9.2374 14.76 8.34531 14.76C7.45405 14.76 6.56237 14.9527 5.73208 15.338L5.70846 15.349C5.01481 15.6586 4.22352 15.4625 3.73257 14.8567C3.23667 14.244 3.18023 13.3765 3.59222 12.698L5.54407 9.48409C6.15903 8.47141 7.20631 7.86679 8.34572 7.86679C9.48514 7.86679 10.5326 8.47141 11.1476 9.48409L13.0992 12.6978C13.5114 13.3767 13.4548 14.2442 12.9586 14.8567Z" fill="#444444" stroke="#444444" stroke-width="0.2"/>
<path d="M3.23068 8.87896C3.81131 8.64354 4.25241 8.14967 4.47282 7.48822C4.68239 6.85881 4.66522 6.14823 4.42421 5.48722C4.18306 4.82664 3.74443 4.2874 3.18921 3.96863C2.6057 3.63392 1.96478 3.57942 1.38512 3.81527C0.218917 4.28856 -0.316254 5.80975 0.192275 7.20701C0.598495 8.31913 1.54593 9.02116 2.5038 9.02116C2.74838 9.02116 2.99365 8.97535 3.23068 8.87896ZM1.17693 6.80692C0.877273 5.98356 1.14053 5.10772 1.76414 4.85462C1.87675 4.80881 1.99582 4.78605 2.11735 4.78605C2.30495 4.78605 2.49872 4.84012 2.68521 4.94725C3.02057 5.13961 3.2885 5.47359 3.43956 5.88745C3.59048 6.30159 3.60394 6.73879 3.47732 7.11873C3.36128 7.46692 3.13922 7.72291 2.8522 7.83931L2.85165 7.8396C2.22887 8.09299 1.47754 7.62956 1.17693 6.80692Z" fill="#444444" stroke="#444444" stroke-width="0.2"/>
<path d="M7.01775 6.36054C8.47563 6.36054 9.66174 4.93415 9.66174 3.18088C9.66174 1.42717 8.47563 0.000488281 7.01775 0.000488281C5.56 0.000488281 4.37402 1.42717 4.37402 3.18088C4.37402 4.93415 5.56 6.36054 7.01775 6.36054ZM7.01775 1.1142C7.89377 1.1142 8.60664 2.04136 8.60664 3.18088C8.60664 4.31996 7.89377 5.24683 7.01775 5.24683C6.14172 5.24683 5.42912 4.31996 5.42912 3.18088C5.42912 2.04136 6.14172 1.1142 7.01775 1.1142Z" fill="#444444" stroke="#444444" stroke-width="0.2"/>
<path d="M11.5838 7.14207H11.584C11.8082 7.22063 12.037 7.25818 12.2649 7.25818C13.3281 7.25818 14.3642 6.44134 14.7596 5.186C14.9873 4.46338 14.9723 3.6993 14.7174 3.03467C14.4507 2.33901 13.9565 1.83398 13.3256 1.61248C12.6947 1.39127 12.012 1.48347 11.4038 1.87224C10.8228 2.24377 10.3775 2.84622 10.1503 3.56884C9.6703 5.09322 10.3134 6.69617 11.5838 7.14207ZM11.1515 3.92007C11.3 3.44823 11.5837 3.05945 11.9505 2.82491C12.2899 2.60791 12.6601 2.55268 12.9928 2.66937C13.3255 2.78621 13.5905 3.06424 13.7394 3.45244C13.9002 3.87195 13.907 4.36278 13.7583 4.83462C13.4618 5.77627 12.6356 6.33726 11.9167 6.08517C11.1984 5.83295 10.855 4.86172 11.1515 3.92007Z" fill="#444444" stroke="#444444" stroke-width="0.2"/>
<path d="M17.1519 6.77107L17.1515 6.77064C16.1461 5.9867 14.6425 6.32649 13.7994 7.52848C12.9572 8.73106 13.0889 10.3478 14.0927 11.1323C14.4589 11.4186 14.8915 11.5554 15.3342 11.5554C16.1059 11.5554 16.9087 11.1397 17.4452 10.3752C18.2875 9.1726 18.1559 7.55588 17.1519 6.77107ZM16.5972 9.71257C16.0994 10.4219 15.2577 10.6571 14.7206 10.2372C14.1839 9.81781 14.1512 8.89964 14.6477 8.1908C14.9777 7.72026 15.4597 7.45847 15.904 7.45847C16.1286 7.45847 16.3437 7.52544 16.5244 7.66648C17.0607 8.08628 17.0932 9.00416 16.5972 9.71257Z" fill="#444444" stroke="#444444" stroke-width="0.2"/>
</g>
<defs>
<clipPath id="clip0">
<rect width="18" height="19" fill="white"/>
</clipPath>
</defs>
</svg>
