<svg width="21" height="21" viewBox="0 0 21 21" fill="none" xmlns="http://www.w3.org/2000/svg">
<path d="M15.2598 3.45654H5.25977C3.87905 3.45654 2.75977 4.57583 2.75977 5.95654V14.2899C2.75977 15.6706 3.87905 16.7899 5.25977 16.7899H15.2598C16.6405 16.7899 17.7598 15.6706 17.7598 14.2899V5.95654C17.7598 4.57583 16.6405 3.45654 15.2598 3.45654Z" stroke="#444444" stroke-width="1.3" stroke-linecap="round" stroke-linejoin="round"/>
<path d="M7.75993 10.1229C8.6804 10.1229 9.42659 9.37669 9.42659 8.45622C9.42659 7.53574 8.6804 6.78955 7.75993 6.78955C6.83945 6.78955 6.09326 7.53574 6.09326 8.45622C6.09326 9.37669 6.83945 10.1229 7.75993 10.1229Z" stroke="#444444" stroke-width="1.3" stroke-linecap="round" stroke-linejoin="round"/>
<path d="M12.7598 6.78955H14.4264" stroke="#444444" stroke-width="1.3" stroke-linecap="round" stroke-linejoin="round"/>
<path d="M12.7598 10.123H14.4264" stroke="#444444" stroke-width="1.3" stroke-linecap="round" stroke-linejoin="round"/>
<path d="M6.09326 13.4565H14.4266" stroke="#444444" stroke-width="1.3" stroke-linecap="round" stroke-linejoin="round"/>
</svg>
