<svg width="16" height="15" viewBox="0 0 16 15" fill="none" xmlns="http://www.w3.org/2000/svg">
<path d="M4.02051 9.375C5.05604 9.375 5.89551 8.53553 5.89551 7.5C5.89551 6.46447 5.05604 5.625 4.02051 5.625C2.98497 5.625 2.14551 6.46447 2.14551 7.5C2.14551 8.53553 2.98497 9.375 4.02051 9.375Z" stroke="#4EB176" stroke-width="1.5" stroke-linecap="round" stroke-linejoin="round"/>
<path d="M11.5205 5.625C12.556 5.625 13.3955 4.78553 13.3955 3.75C13.3955 2.71447 12.556 1.875 11.5205 1.875C10.485 1.875 9.64551 2.71447 9.64551 3.75C9.64551 4.78553 10.485 5.625 11.5205 5.625Z" stroke="#4EB176" stroke-width="1.5" stroke-linecap="round" stroke-linejoin="round"/>
<path d="M11.5205 13.125C12.556 13.125 13.3955 12.2855 13.3955 11.25C13.3955 10.2145 12.556 9.375 11.5205 9.375C10.485 9.375 9.64551 10.2145 9.64551 11.25C9.64551 12.2855 10.485 13.125 11.5205 13.125Z" stroke="#4EB176" stroke-width="1.5" stroke-linecap="round" stroke-linejoin="round"/>
<path d="M5.70801 6.6875L9.83301 4.5625" stroke="#4EB176" stroke-width="1.5" stroke-linecap="round" stroke-linejoin="round"/>
<path d="M5.70801 8.3125L9.83301 10.4375" stroke="#4EB176" stroke-width="1.5" stroke-linecap="round" stroke-linejoin="round"/>
</svg>
