<svg width="30" height="30" viewBox="0 0 30 30" fill="none" xmlns="http://www.w3.org/2000/svg">
<path d="M9.42899 17.5714C10.6125 17.5714 11.5718 16.612 11.5718 15.4286C11.5718 14.2451 10.6125 13.2857 9.42899 13.2857C8.24552 13.2857 7.28613 14.2451 7.28613 15.4286C7.28613 16.612 8.24552 17.5714 9.42899 17.5714Z" stroke="#6C757D" stroke-width="1.25" stroke-linecap="round" stroke-linejoin="round"/>
<path d="M18.0003 13.2857C19.1837 13.2857 20.1431 12.3263 20.1431 11.1429C20.1431 9.95939 19.1837 9 18.0003 9C16.8168 9 15.8574 9.95939 15.8574 11.1429C15.8574 12.3263 16.8168 13.2857 18.0003 13.2857Z" stroke="#6C757D" stroke-width="1.25" stroke-linecap="round" stroke-linejoin="round"/>
<path d="M18.0003 21.8571C19.1837 21.8571 20.1431 20.8977 20.1431 19.7143C20.1431 18.5308 19.1837 17.5714 18.0003 17.5714C16.8168 17.5714 15.8574 18.5308 15.8574 19.7143C15.8574 20.8977 16.8168 21.8571 18.0003 21.8571Z" stroke="#6C757D" stroke-width="1.25" stroke-linecap="round" stroke-linejoin="round"/>
<path d="M11.3574 14.5L16.0717 12.0714" stroke="#6C757D" stroke-width="1.25" stroke-linecap="round" stroke-linejoin="round"/>
<path d="M11.3574 16.3571L16.0717 18.7857" stroke="#6C757D" stroke-width="1.25" stroke-linecap="round" stroke-linejoin="round"/>
</svg>
