<svg width="23" height="19" viewBox="0 0 23 19" fill="none" xmlns="http://www.w3.org/2000/svg">
<path d="M6.09293 11.875C7.59096 11.875 8.80536 10.8117 8.80536 9.5C8.80536 8.18832 7.59096 7.125 6.09293 7.125C4.59489 7.125 3.38049 8.18832 3.38049 9.5C3.38049 10.8117 4.59489 11.875 6.09293 11.875Z" stroke="white" stroke-width="2" stroke-linecap="round" stroke-linejoin="round"/>
<path d="M16.9427 7.125C18.4407 7.125 19.6551 6.06168 19.6551 4.75C19.6551 3.43832 18.4407 2.375 16.9427 2.375C15.4446 2.375 14.2302 3.43832 14.2302 4.75C14.2302 6.06168 15.4446 7.125 16.9427 7.125Z" stroke="white" stroke-width="2" stroke-linecap="round" stroke-linejoin="round"/>
<path d="M16.9427 16.625C18.4407 16.625 19.6551 15.5617 19.6551 14.25C19.6551 12.9383 18.4407 11.875 16.9427 11.875C15.4446 11.875 14.2302 12.9383 14.2302 14.25C14.2302 15.5617 15.4446 16.625 16.9427 16.625Z" stroke="white" stroke-width="2" stroke-linecap="round" stroke-linejoin="round"/>
<path d="M8.53418 8.47072L14.5015 5.77905" stroke="white" stroke-width="2" stroke-linecap="round" stroke-linejoin="round"/>
<path d="M8.53418 10.5291L14.5015 13.2207" stroke="white" stroke-width="2" stroke-linecap="round" stroke-linejoin="round"/>
</svg>
