<svg width="25" height="25" viewBox="0 0 25 25" fill="none" xmlns="http://www.w3.org/2000/svg">
<path d="M12.4108 21.0447C17.3813 21.0447 21.4108 17.0152 21.4108 12.0447C21.4108 7.07411 17.3813 3.04468 12.4108 3.04468C7.4402 3.04468 3.41077 7.07411 3.41077 12.0447C3.41077 17.0152 7.4402 21.0447 12.4108 21.0447Z" stroke="#4EB176" stroke-width="1.5" stroke-linecap="round" stroke-linejoin="round"/>
<path d="M9.41077 10.0447H9.42077" stroke="#4EB176" stroke-width="1.5" stroke-linecap="round" stroke-linejoin="round"/>
<path d="M15.4108 10.0447H15.4208" stroke="#4EB176" stroke-width="1.5" stroke-linecap="round" stroke-linejoin="round"/>
<path d="M9.91077 15.0447C10.2366 15.3773 10.6256 15.6415 11.0549 15.8219C11.4842 16.0023 11.9451 16.0952 12.4108 16.0952C12.8764 16.0952 13.3374 16.0023 13.7666 15.8219C14.1959 15.6415 14.5849 15.3773 14.9108 15.0447" stroke="#4EB176" stroke-width="1.5" stroke-linecap="round" stroke-linejoin="round"/>
</svg>
