<svg width="26" height="25" viewBox="0 0 26 25" fill="none" xmlns="http://www.w3.org/2000/svg">
<rect x="0.830566" y="0.680054" width="24.3202" height="23.9053" rx="3" fill="#4EB176"/>
<path d="M6.49658 19.301L7.87158 16.1343C6.81963 14.641 6.3488 12.8152 6.54745 10.9994C6.7461 9.18365 7.60057 7.50278 8.95051 6.27227C10.3004 5.04175 12.053 4.34618 13.8794 4.31608C15.7058 4.28599 17.4803 4.92344 18.8701 6.10881C20.2598 7.29418 21.1692 8.94598 21.4276 10.7542C21.6859 12.5625 21.2755 14.4028 20.2733 15.93C19.2712 17.4571 17.7461 18.566 15.9844 19.0486C14.2227 19.5312 12.3454 19.3542 10.7049 18.551L6.49658 19.301" stroke="white" stroke-width="1.25" stroke-linecap="round" stroke-linejoin="round"/>
<path d="M11.4966 10.1344C11.4966 10.2449 11.5405 10.3509 11.6186 10.429C11.6968 10.5072 11.8027 10.5511 11.9132 10.5511C12.0238 10.5511 12.1297 10.5072 12.2079 10.429C12.286 10.3509 12.3299 10.2449 12.3299 10.1344V9.30107C12.3299 9.19056 12.286 9.08458 12.2079 9.00644C12.1297 8.9283 12.0238 8.8844 11.9132 8.8844C11.8027 8.8844 11.6968 8.9283 11.6186 9.00644C11.5405 9.08458 11.4966 9.19056 11.4966 9.30107V10.1344ZM11.4966 10.1344C11.4966 11.2395 11.9356 12.2993 12.717 13.0807C13.4984 13.8621 14.5582 14.3011 15.6632 14.3011H16.4966C16.6071 14.3011 16.7131 14.2572 16.7912 14.179C16.8694 14.1009 16.9132 13.9949 16.9132 13.8844C16.9132 13.7739 16.8694 13.6679 16.7912 13.5898C16.7131 13.5116 16.6071 13.4677 16.4966 13.4677H15.6632C15.5527 13.4677 15.4468 13.5116 15.3686 13.5898C15.2905 13.6679 15.2466 13.7739 15.2466 13.8844C15.2466 13.9949 15.2905 14.1009 15.3686 14.179C15.4468 14.2572 15.5527 14.3011 15.6632 14.3011" stroke="white" stroke-width="1.25" stroke-linecap="round" stroke-linejoin="round"/>
</svg>
